<?xml version="1.0" encoding="utf-8"?>
<svg version="1.1" xmlns:xlink="http://www.w3.org/1999/xlink" width="25px" height="30px" xmlns="http://www.w3.org/2000/svg">
  <g transform="matrix(1 0 0 1 -1195 -60 )">
    <path d="M 20.833333333333336 8.571428571428571  C 20.833333333333336 10.212053571428571  20.40473090277778 11.729910714285712  19.547526041666664 13.125  C 20.057508680555557 13.281249999999998  20.543077256944446 13.493303571428571  21.004231770833336 13.761160714285714  C 21.465386284722225 14.029017857142858  21.9482421875 14.436383928571427  22.452799479166664 14.983258928571429  C 22.957356770833336 15.530133928571427  23.388671875 16.174665178571427  23.746744791666664 16.91685267857143  C 24.104817708333336 17.659040178571427  24.403211805555557 18.618861607142854  24.641927083333336 19.796316964285715  C 24.880642361111107 20.973772321428573  25 22.293526785714285  25 23.755580357142858  C 25 25.47433035714286  24.457465277777775 26.94475446428571  23.372395833333336 28.16685267857143  C 22.287326388888893 29.388950892857142  20.979817708333336 30  19.449869791666664 30  L 5.550130208333334 30  C 4.020182291666666 30  2.7126736111111116 29.388950892857142  1.6276041666666667 28.16685267857143  C 0.5425347222222221 26.94475446428571  0 25.47433035714286  0 23.755580357142858  C 0 22.293526785714285  0.11935763888888888 20.973772321428573  0.35807291666666663 19.796316964285715  C 0.5967881944444445 18.618861607142854  0.8951822916666666 17.659040178571427  1.2532552083333335 16.91685267857143  C 1.611328125 16.174665178571427  2.042643229166667 15.530133928571427  2.547200520833333 14.983258928571429  C 3.0517578125 14.436383928571427  3.534613715277778 14.029017857142858  3.9957682291666665 13.761160714285714  C 4.456922743055556 13.493303571428571  4.942491319444445 13.281249999999998  5.452473958333334 13.125  C 4.595269097222223 11.729910714285712  4.166666666666666 10.212053571428571  4.166666666666666 8.571428571428571  C 4.166666666666666 7.410714285714283  4.386393229166666 6.303013392857142  4.825846354166666 5.248325892857142  C 5.265299479166666 4.193638392857142  5.859375 3.28125  6.608072916666667 2.5111607142857126  C 7.356770833333333 1.741071428571429  8.243815104166668 1.130022321428571  9.269205729166668 0.6780133928571419  C 10.294596354166668 0.22600446428571286  11.371527777777779 0  12.5 0  C 13.628472222222223 0  14.705403645833334 0.22600446428571286  15.730794270833334 0.6780133928571419  C 16.756184895833336 1.130022321428571  17.643229166666664 1.741071428571429  18.391927083333336 2.5111607142857126  C 19.140625 3.28125  19.734700520833336 4.193638392857142  20.174153645833336 5.248325892857142  C 20.613606770833336 6.303013392857142  20.833333333333336 7.410714285714283  20.833333333333336 8.571428571428571  Z M 16.9189453125 4.026227678571429  C 15.698242187500004 2.770647321428571  14.225260416666668 2.142857142857142  12.5 2.142857142857142  C 10.774739583333332 2.142857142857142  9.3017578125 2.770647321428571  8.0810546875 4.026227678571429  C 6.8603515625 5.281808035714287  6.25 6.796875  6.25 8.571428571428571  C 6.25 10.345982142857142  6.8603515625 11.861049107142858  8.0810546875 13.116629464285714  C 9.3017578125 14.372209821428571  10.774739583333332 15  12.5 15  C 14.225260416666668 15  15.698242187500004 14.372209821428571  16.9189453125 13.116629464285714  C 18.1396484375 11.861049107142858  18.75 10.345982142857142  18.75 8.571428571428571  C 18.75 6.796875  18.1396484375 5.281808035714287  16.9189453125 4.026227678571429  Z M 5.550130208333334 27.857142857142858  L 19.449869791666664 27.857142857142858  C 20.40473090277778 27.857142857142858  21.221245659722225 27.458147321428573  21.8994140625 26.66015625  C 22.57758246527778 25.862165178571427  22.916666666666664 24.893973214285715  22.916666666666664 23.755580357142858  C 22.916666666666664 21.088169642857142  22.490776909722225 18.984375  21.638997395833336 17.44419642857143  C 20.787217881944446 15.904017857142858  19.563802083333336 15.09486607142857  17.96875 15.016741071428571  C 16.395399305555554 16.434151785714285  14.57248263888889 17.142857142857142  12.5 17.142857142857142  C 10.427517361111112 17.142857142857142  8.604600694444446 16.434151785714285  7.03125 15.016741071428571  C 5.436197916666666 15.09486607142857  4.212782118055556 15.904017857142858  3.3610026041666665 17.44419642857143  C 2.509223090277778 18.984375  2.083333333333333 21.088169642857142  2.083333333333333 23.755580357142858  C 2.083333333333333 24.893973214285715  2.4224175347222223 25.862165178571427  3.1005859375 26.66015625  C 3.778754340277778 27.458147321428573  4.595269097222223 27.857142857142858  5.550130208333334 27.857142857142858  Z " fill-rule="nonzero" fill="#ffffff" stroke="none" transform="matrix(1 0 0 1 1195 60 )" />
  </g>
</svg>